
<svg xmlns="http://www.w3.org/2000/svg" xmlns:xlink="http://www.w3.org/1999/xlink" viewBox="0 0 148.2 42.7"><defs><linearGradient id="b" x1="131.2" x2="143.5" y1="25.3" y2="33.6" gradientUnits="userSpaceOnUse"><stop offset="0" stop-color="#febe2d"/><stop offset="1" stop-color="#f85e23"/></linearGradient><linearGradient id="c" x1="16.9" x2="36.5" y1="6.1" y2="6.1" gradientUnits="userSpaceOnUse"><stop offset="0" stop-color="#fbaa19"/><stop offset="1" stop-color="#ef3e23"/></linearGradient><linearGradient id="d" x1="15.8" x2="17.3" y1="31.1" y2="26.9" gradientUnits="userSpaceOnUse"><stop offset="0" stop-color="#f78d1e"/><stop offset="1" stop-color="#f37121"/></linearGradient><linearGradient id="a" x1="3.6" x2="27.5" y1="32.5" y2="6.9" gradientUnits="userSpaceOnUse"><stop offset="0" stop-color="#febe2d"/><stop offset="1" stop-color="#f04e23"/></linearGradient><linearGradient id="e" x1="20.5" x2="7.2" y1="17.5" y2="37.9" gradientUnits="userSpaceOnUse"><stop offset="0" stop-color="#ea4425"/><stop offset="1" stop-color="#fdbb27"/></linearGradient><linearGradient id="f" x1=".2" x2="42" y1="10.6" y2="10.6" gradientUnits="userSpaceOnUse"><stop offset="0" stop-color="#f47920"/><stop offset="1" stop-color="#e93825"/></linearGradient><linearGradient id="g" x1="-21.8" x2="63.2" y1="7.8" y2="7.8" gradientUnits="userSpaceOnUse"><stop offset="0" stop-color="#fdca0b"/><stop offset="1" stop-color="#f5841f"/></linearGradient><linearGradient id="h" x1="8.5" x2="17.4" y1="18.1" y2="48.9" gradientUnits="userSpaceOnUse"><stop offset="0" stop-color="#e73c25"/><stop offset="1" stop-color="#faa21b"/></linearGradient><linearGradient id="i" x1="-51.4" x2="74.9" y1="23.1" y2="23.1" gradientUnits="userSpaceOnUse"><stop offset="0" stop-color="#fdba12"/><stop offset="1" stop-color="#f7921e"/></linearGradient><linearGradient xlink:href="#a" id="j" x1=".1" x2="4.8" y1="16.7" y2="17.6"/></defs><g data-name="Layer 2"><g fill-rule="evenodd" data-name="Layer 1"><path fill="url(#b)" d="M125 31a1.1 1.1 0 0 0-1 1c0 .5.3 1 .8 1a1.1 1.1 0 0 0 1-1 .8.8 0 0 0-.8-1Zm7.4-5.8a3.1 3.1 0 0 0-2.7 1.5l.2-1.4h-1.7l-1.1 7.5h1.7l.5-3.7a2.3 2.3 0 0 1 2.2-2.2c1 0 1.4.7 1.3 1.7l-.6 4.2h1.7l.7-4.7c.3-1.8-.6-2.9-2.2-2.9Zm7.2 0a4.2 4.2 0 0 0-4.1 3.9c-.3 2.2.9 3.8 3 3.8a4.3 4.3 0 0 0 3.2-1.3l-.8-1a3 3 0 0 1-2 .8 1.7 1.7 0 0 1-1.7-1.7h5.2c.5-2.7-.3-4.5-2.8-4.5Zm-2.3 3.2a2.3 2.3 0 0 1 2.1-1.8 1.5 1.5 0 0 1 1.6 1.9ZM147 31a2.5 2.5 0 0 1-1 .3c-.4 0-.7-.2-.6-1l.5-3.4h2l.2-1.3h-2l.3-2.1h-1.7l-.3 2h-1l-.2 1.4h1l-.5 3.7c-.2 1.6.6 2.3 1.7 2.3a3.7 3.7 0 0 0 1.9-.6Z"/><path fill="#000" d="M44.6 22.8a1.3 1.3 0 1 1-1.3 1.4 1.3 1.3 0 0 1 1.3-1.4Zm13.2-3.7a6.6 6.6 0 0 1 4-1.3 5.8 5.8 0 0 1 4.3 2 7.1 7.1 0 0 1 1.4 5.7 8.9 8.9 0 0 1-6 7.6 7.7 7.7 0 0 1-2 .3 4.5 4.5 0 0 1-4-2l-.2 1.3a.3.3 0 0 1-.2.2H52a.2.2 0 0 1-.2 0 .2.2 0 0 1 0-.2l1.1-7.4h-4a1.1 1.1 0 0 1-1.1-1.1 1.1 1.1 0 0 1 1-1.2h8.6a5.2 5.2 0 0 0-1 2.6c-.4 2.1.7 4.1 3 4.1a4.7 4.7 0 0 0 4.5-4.2c.3-2-1-4-3.2-4H51a1.1 1.1 0 0 1-1.1-1.2 1.1 1.1 0 0 1 1-1.2h3l.8-5.6a.3.3 0 0 1 .2-.2H58a.2.2 0 0 1 .2 0 .2.2 0 0 1 0 .2l-.9 5.6Zm19.6 12.5a5.3 5.3 0 0 1-4.2 1.8c-3.9 0-5-3-4.5-6.3l1.3-8.7a.3.3 0 0 1 .3-.2h3.1a.2.2 0 0 1 .2.1.2.2 0 0 1 0 .2l-1.2 7.7c-.2 1.9 0 3.5 2.2 3.5s3-1.5 3.3-3.4l1.1-7.9a.3.3 0 0 1 .3-.2h3.2a.2.2 0 0 1 .1.1.2.2 0 0 1 0 .2l-2 14.2a.3.3 0 0 1-.2.2h-3a.2.2 0 0 1-.2 0 .2.2 0 0 1 0-.2l.1-1Zm10.8-12a5.4 5.4 0 0 1 4.2-1.8c3.9 0 5 2.9 4.4 6.3l-1.2 8.6a.2.2 0 0 1-.2.2h-3.2a.2.2 0 0 1-.2 0 .2.2 0 0 1 0-.2L93 25c.3-1.8 0-3.5-2.1-3.5s-3 1.5-3.3 3.4l-1.2 7.9a.3.3 0 0 1-.2.2h-3.2a.2.2 0 0 1-.1-.1.2.2 0 0 1 0-.2l2-14.2a.3.3 0 0 1 .2-.2h3a.2.2 0 0 1 .2 0 .2.2 0 0 1 0 .2l-.1 1Zm15 0a5.4 5.4 0 0 1 4-1.8c4 0 5 2.9 4.5 6.3l-1.2 8.6a.3.3 0 0 1-.2.2H107a.2.2 0 0 1-.2 0 .2.2 0 0 1 0-.2L108 25c.3-1.8 0-3.5-2.1-3.5s-3 1.5-3.3 3.4l-1.2 7.9a.3.3 0 0 1-.2.2H98a.2.2 0 0 1-.2-.1.2.2 0 0 1 0-.2l2-14.2a.3.3 0 0 1 .3-.2h3a.2.2 0 0 1 .1 0 .2.2 0 0 1 0 .2v1ZM115.4 32l-3-13.6a.2.2 0 0 1 0-.2.2.2 0 0 1 .2 0h3.4a.2.2 0 0 1 .2 0l1.8 8.9 4.2-8.8a.2.2 0 0 1 .3-.2h3.4a.2.2 0 0 1 .2.1.2.2 0 0 1 0 .3l-9.8 19.2a.2.2 0 0 1-.2.1h-3.4a.2.2 0 0 1-.2-.1.2.2 0 0 1 0-.2Z"/><path fill="url(#c)" d="m21 6.8 9.9 5.4L21.8 0a6.8 6.8 0 0 0-.8 6.8Z"/><path fill="url(#d)" d="M16.5 26.7a2.3 2.3 0 1 1-2.2 2.3 2.3 2.3 0 0 1 2.2-2.3Z"/><path fill="url(#a)" d="m9.7 1.8 27.6 15a1.3 1.3 0 0 1 0 2.4 21.5 21.5 0 0 1-6.8 2.6l-5.7 11.8S23 37.8 18 36.2c2-2.1 4.6-4 4.6-7.2a6 6 0 0 0-12.1 0c0 4.2 4.1 6 6.4 8.9a3.8 3.8 0 0 1-.3 4.8C13.7 39.8 8.2 35 5.9 31.9a9.1 9.1 0 0 1-2-5.5 10.4 10.4 0 0 1 7.4-9.5 12 12 0 0 1 4-.5 12.6 12.6 0 0 1 5.1 1.6c2.5 1.4 3.7 1 5.3-.4 1-.8 2.1-3.5.4-4a12.1 12.1 0 0 0-1.7-.5c-3-.6-8.6-1.2-10.6-2.3-3.2-1.8-5.4-5.5-4.1-9Z"/><path fill="url(#e)" d="M22.6 29.4Zm0-.4c1.2-6.7-5.6-13.2-10.8-12.2h.3l-.8.1a10.4 10.4 0 0 0-7.4 9.5 9.1 9.1 0 0 0 2 5.5c2.3 3.2 7.8 8 10.7 10.8A3.8 3.8 0 0 0 17 38c-2.3-2.9-6.5-4.7-6.5-8.9a6 6 0 0 1 12.2 0Z"/><path fill="url(#f)" d="m9.7 1.8 21 11.4.6.4c.5.4 1 1.1.3 2.6-1 2.1-5 4.2-9.6 2.6 1.5.4 2.4 0 3.7-1.1 1-.9 2-3.5.4-4.2a12.1 12.1 0 0 0-1.7-.4c-3.1-.6-8.6-1.2-10.6-2.3-3.2-1.8-5.4-5.5-4.1-9Z"/><path fill="url(#g)" d="M9.7 1.8c2.1 8 15.4 8.7 22 12Z"/><path fill="url(#h)" d="M16.9 38c-2.3-3-6.5-4.8-6.5-9a6 6 0 0 1 5.3-6A8.8 8.8 0 0 0 7 31.8a8.5 8.5 0 0 0 .2 1.7c1.9 2.2 4.6 4.7 7 6.9l2.4 2.3a4.2 4.2 0 0 0 1-2.4A3.7 3.7 0 0 0 17 38Z"/><path fill="url(#i)" d="M22.5 29.7a5.8 5.8 0 0 0 0-.7c1.3-6.7-5.5-13.2-10.7-12.2a12.5 12.5 0 0 1 3.4-.3c6.9.2 8.8 7.6 7.3 13.2Z"/><path fill="url(#j)" d="M2.3 14.8a2.3 2.3 0 0 1 2.2 2.3v2.3H2.3A2.3 2.3 0 0 1 0 17a2.3 2.3 0 0 1 2.3-2.3Z"/></g></g></svg>
