
<svg xmlns="http://www.w3.org/2000/svg" id="Layer_1" viewBox="0 0 298 47.2"><defs><style>.cls-2{fill:#000e9c}</style></defs><path fill="#000e9c" fill-rule="evenodd" d="M73.1 2.7a40.1 40.1 0 0 1-3.7 44.5H48l6.6-11.7h-8.8l10.3-18.1H65l8.2-14.7ZM30.8 47.2H8.9A39.6 39.6 0 0 1 5.1 2.6l14.2 24.6L35 0h23L30.8 47.2Z"/><path d="M91.2 25.3c0-12.6 6.3-18.7 16.6-18.7s16.5 6 16.5 18.7-6.3 18.6-16.5 18.6-16.6-6.1-16.6-18.6Zm3.7 0c0 10.3 4.8 15.3 12.9 15.3s12.8-5 12.8-15.3S116 9.9 107.8 9.9s-12.9 5-12.9 15.4ZM151.4 8.1a1.8 1.8 0 0 1 1.7-1.1 1.8 1.8 0 0 1 1.8 1.8 2.4 2.4 0 0 1-.2.8l-12.4 32.7a1.8 1.8 0 0 1-3.4 0L126.5 9.6a2.4 2.4 0 0 1-.1-.8 1.8 1.8 0 0 1 1.8-1.8 1.8 1.8 0 0 1 1.7 1.1l10.7 28.6ZM162.4 26.4v15.3a1.8 1.8 0 1 1-3.6 0v-33a1.8 1.8 0 1 1 3.6 0v14.5H181V8.8a1.8 1.8 0 1 1 3.6 0v33a1.8 1.8 0 1 1-3.6 0V26.4ZM201.6 18.3a10 10 0 0 1 8.2 3.6 1.6 1.6 0 0 1 .3 1 1.5 1.5 0 0 1-1.5 1.6 1.6 1.6 0 0 1-1.3-.7 6.8 6.8 0 0 0-5.7-2.4c-5 0-7.5 3.1-7.5 9.6s2.6 9.8 7.5 9.8a9.7 9.7 0 0 0 6.1-2.3 1.6 1.6 0 0 1 1-.4 1.5 1.5 0 0 1 1.6 1.5 1.6 1.6 0 0 1-.7 1.4 12 12 0 0 1-8 2.8c-6.9 0-11-4-11-12.8s4.1-12.7 11-12.7ZM218.5 7v30.4c0 2.1.7 3 2.1 3a1.6 1.6 0 1 1 0 3.2c-3.5 0-5.5-2.2-5.5-6.2V7a1.7 1.7 0 0 1 1.7-1.7 1.7 1.7 0 0 1 1.7 1.7ZM247.4 31c0 8.7-4.2 12.8-11.1 12.8s-11.1-4-11.1-12.8 4.3-12.7 11-12.7 11.2 4 11.2 12.7Zm-3.4 0c0-6.7-2.8-9.7-7.7-9.7s-7.7 3-7.7 9.7 2.8 9.7 7.7 9.7 7.7-2.9 7.7-9.7ZM255.6 20.3V34c0 3.5 1.1 6.5 6.5 6.5s6.5-3 6.5-6.5V20.3a1.7 1.7 0 0 1 1.7-1.7 1.7 1.7 0 0 1 1.7 1.7V34c0 5-1.7 9.7-10 9.7s-9.8-4.6-9.8-9.7V20.3a1.7 1.7 0 0 1 1.7-1.7 1.7 1.7 0 0 1 1.7 1.7ZM294.6 21.7V7a1.7 1.7 0 0 1 3.4 0v26.4c0 7-4.3 10.4-10.4 10.4-6.8 0-10.9-4-10.9-12.7s3.9-12.8 10.7-12.8a9 9 0 0 1 7.2 3.4Zm0 4.3s-2-4.6-7-4.6-7.5 3-7.5 9.6 2.6 9.7 7.5 9.7c4.1 0 7-2.3 7-7.4Z" class="cls-2"/></svg>
