
<svg xmlns="http://www.w3.org/2000/svg" viewBox="0 0 284 65"><path d="M141.7 16.3c-11 0-19 7.1-19 18s9 18 20 18c6.7 0 12.5-2.7 16.2-7.1l-7.7-4.5c-2 2.2-5 3.5-8.5 3.5-4.8 0-8.9-2.5-10.4-6.5h28c.3-1 .4-2.2.4-3.5 0-10.8-8-18-19-18zm-9.5 14.4c1.3-4 4.7-6.4 9.5-6.4s8.2 2.5 9.4 6.4h-18.9zm117.2-14.4c-11 0-19 7.1-19 18s9 18 20 18a21 21 0 0 0 16.2-7.1l-7.7-4.5c-2 2.2-5 3.5-8.5 3.5-4.8 0-8.9-2.5-10.4-6.5h28c.2-1 .4-2.2.4-3.5 0-10.8-8-18-19-18zm-9.5 14.4c1.3-4 4.7-6.4 9.5-6.4s8.2 2.5 9.4 6.4H240zm-39 3.6c0 6 3.9 10 10 10 4.1 0 7.2-2 8.8-5l7.7 4.5a18.5 18.5 0 0 1-16.5 8.5c-11 0-19-7.2-19-18s8-18 19-18c7.3 0 13.3 3.1 16.5 8.4l-7.7 4.5c-1.6-3-4.7-5-8.8-5-6 0-10 4-10 10zm82.5-29v46h-9v-46h9zM37.6.3l37 64H.5l37-64zm92.4 5-27.7 48-27.8-48H85l17.4 30 17.3-30H130zm58.9 12v9.6c-1-.3-2-.5-3.2-.5-5.8 0-10 4-10 10v14.9h-9v-34h9v9.1c0-5 5.9-9.1 13.2-9.1z"/></svg>
