
<svg xmlns="http://www.w3.org/2000/svg" fill="none" viewBox="0 0 144 68"><g fill="#000" clip-path="url(#a)"><path d="m36.9 9.46-.59 6.02 6.33-3.65 6.78 4.4L65.11.2l-35.53 2.1 6.55 5.8 21.1-5.8-20.34 7.17ZM24 12.45l-7.24-.84.66-5.76 7.24.85-.66 5.75ZM30.9 20.01l-7.22-.97.65-6.59 7.23.99-.67 6.57ZM22.98 24.73l-7.2-.8.69-5.8 7.21.81-.7 5.79ZM24.12 33.22l-5.38-.65.53-5.01 5.4.68-.55 4.98ZM9.35 37l-5.41-.58.52-4.15 5.4.6-.5 4.12ZM14.29 44.55l-5.4-.58.5-4.15 5.4.6-.5 4.13Z"/><path d="m9.45 47.38-4.53-.47.43-3.3 4.52.46-.42 3.31ZM19.18 36.05l-5.38-.67.56-5 5.36.69-.54 4.98ZM41.81 23.79l-6.29-.7.6-4.96 6.3.69-.61 4.97ZM33.05 25.67l-5.43-.6.48-4.11 5.43.6-.48 4.11ZM8.46 53.04l-4.52-.49.43-3.28 4.51.5-.42 3.27ZM10.43 59.64l-4.5-.48.4-3.29 4.53.49-.43 3.28ZM18.36 64.36l-3.56-.42.38-3.35 3.56.43-.38 3.34ZM24.28 65.3l-3.55-.41.35-3.36 3.58.43-.38 3.34ZM27.33 62.47l-2.67-.3.28-2.53 2.68.34-.29 2.5ZM32.28 67.19l-2.7-.3.3-2.53 2.66.33-.26 2.5ZM39.17 65.3 36.5 65l.3-2.53 2.66.34-.29 2.5ZM42.22 60.59l-1.78-.21.2-1.68 1.78.2-.2 1.69ZM15.43 56.81l-3.59-.44.36-3.33 3.58.44-.35 3.33Z"/><path d="m18.39 58.7-3.6-.32.37-2.51 3.58.35-.35 2.48ZM4.52 49.27 0 48.78l.4-3.29 4.52.5-.4 3.28ZM4.52 38.88 0 38.4l.4-3.3 4.52.5-.4 3.27ZM13.26 28.5l-5.36-.65.54-5 5.36.64-.54 5.01ZM50.65 49.35a9.15 9.15 0 0 1-4.34 1.07c-3.63 0-6.08-1.25-7.73-2.87a10.38 10.38 0 0 1-3.07-7.5c0-3.1 1.3-5.7 3.07-7.43a10.42 10.42 0 0 1 7.35-2.84c1.3 0 2.8.26 4.72 1.1v5.26a6.24 6.24 0 0 0-4.6-2.1 5.5 5.5 0 0 0-4.02 1.54 6.35 6.35 0 0 0-1.86 4.56c0 2.04.82 3.5 1.7 4.36a5.95 5.95 0 0 0 4.26 1.66c1.18 0 2.78-.32 4.52-2.04v5.23ZM62.3 36.76h4.26v13.21H62.3v-1.59a4.38 4.38 0 0 1-3.9 2.04c-1.89 0-3.48-.47-4.93-2.01a7.05 7.05 0 0 1-1.92-4.95 7.6 7.6 0 0 1 2.03-5.35 6.35 6.35 0 0 1 4.58-1.8c1.11 0 2.92.26 4.13 1.93v-1.48h.01Zm-5.4 4.17a3.32 3.32 0 0 0-.97 2.4c0 1.18.5 1.96.89 2.37.59.63 1.5 1.04 2.51 1.04a3.32 3.32 0 0 0 3.25-3.4c0-.94-.36-1.83-.97-2.42a3.53 3.53 0 0 0-2.36-.92 3.28 3.28 0 0 0-2.35.93ZM78.27 40.93a4.28 4.28 0 0 0-2.77-1.01c-1.33 0-2.13.65-2.42.94a3.49 3.49 0 0 0-.98 2.48c0 .99.36 1.8.88 2.38a3.5 3.5 0 0 0 2.57 1.06c.73 0 1.74-.2 2.72-1.04v3.86c-1.12.62-2.18.8-3.37.8a6.9 6.9 0 0 1-7.18-7.02 7.1 7.1 0 0 1 2.18-5.21 7.03 7.03 0 0 1 5.02-1.87c1.14 0 2.2.2 3.33.73v3.9h.02ZM79.92 30.2h4.25v8.12a4.98 4.98 0 0 1 4.16-1.93 5 5 0 0 1 3.72 1.34c1.21 1.22 1.3 2.84 1.3 3.85v8.4h-4.26v-6.79c0-.91-.03-1.98-.7-2.63a2.4 2.4 0 0 0-1.66-.6c-.91 0-1.45.42-1.69.65-.85.83-.88 2.11-.88 2.76v6.6H79.9V30.21h.02ZM108.67 43.94h-9.82c0 .7.26 1.66.8 2.24.65.71 1.53.84 2.18.84.62 0 1.27-.13 1.71-.4.06-.02.57-.35.92-1.09l4.02.42a5.85 5.85 0 0 1-2.55 3.31 7.72 7.72 0 0 1-4.16.99c-1.97 0-3.71-.36-5.24-1.9a7.11 7.11 0 0 1-1.98-5.1c0-1.9.68-3.85 2-5.2a6.88 6.88 0 0 1 5.05-1.9c1.47 0 3.6.25 5.22 1.97 1.56 1.67 1.86 3.74 1.86 5.37v.45h-.01Zm-3.92-2.56a3.32 3.32 0 0 0-.86-1.54 2.85 2.85 0 0 0-2-.73c-1.1 0-1.75.44-2.16.86-.32.36-.62.83-.73 1.43h5.75v-.02ZM121.37 34.05H115v3.83h5.9v3.86H115v8.23h-4.55V30.21h10.92v3.84ZM126.63 30.42V50.2h-4.25V30.42h4.25ZM133.26 48.28l-6.28-11.52h4.9l3.72 7.17 3.63-7.17h4.78l-10.6 20h-4.77l4.62-8.48Z"/></g><defs><clipPath id="a"><path fill="#fff" d="M0 .19h144v67H0z"/></clipPath></defs></svg>
