
<svg xmlns="http://www.w3.org/2000/svg" fill="none" viewBox="0 0 145 60"><path fill="url(#a)" d="M30.5 9.5 35 1.3H0v45.2h30l-4.6-8.3H9V27.8h15.7l2.6-8.2H9v-10h21.5Z"/><path fill="url(#b)" d="M30.5 9.5 35 1.3H0v45.2h30l-4.6-8.3H9V27.8h15.7l2.6-8.2H9v-10h21.5Z"/><path fill="url(#c)" d="M52.2 7.4v11a11 11 0 0 0-6.2-3.7l-3-.3c-8.6 0-15.1 7-15.1 16.4v1.8c.9 8.5 7 14.7 15.1 14.7 4.3 0 7.3-1.7 9.4-4.3v3.5h8.2V0l-8.4 7.4Zm-7.6 32c-5 0-8-3.8-8-8.6s3-8.6 8-8.6c4.8 0 8 3.7 8 8.6 0 5-3.2 8.6-8 8.6Z"/><path fill="url(#d)" d="M52.2 7.4v11a11 11 0 0 0-6.2-3.7l-3-.3c-8.6 0-15.1 7-15.1 16.4v1.8c.9 8.5 7 14.7 15.1 14.7 4.3 0 7.3-1.7 9.4-4.3v3.5h8.2V0l-8.4 7.4Zm-7.6 32c-5 0-8-3.8-8-8.6s3-8.6 8-8.6c4.8 0 8 3.7 8 8.6 0 5-3.2 8.6-8 8.6Z"/><path fill="url(#e)" d="M52.2 7.4v11a11 11 0 0 0-6.2-3.7l-3-.3c-8.6 0-15.1 7-15.1 16.4v1.8c.9 8.5 7 14.7 15.1 14.7 4.3 0 7.3-1.7 9.4-4.3v3.5h8.2V0l-8.4 7.4Zm-7.6 32c-5 0-8-3.8-8-8.6s3-8.6 8-8.6c4.8 0 8 3.7 8 8.6 0 5-3.2 8.6-8 8.6Z"/><path fill="url(#f)" d="M87.9 15.2v3.5a11.8 11.8 0 0 0-9.7-4.3c-7.6 0-14.4 6.3-14.4 16 0 9.5 6.8 15.9 14.4 15.9h2c3.8-.3 5.6-1.8 7.6-4.2v2.2c0 5.4-3.7 8.2-8.9 8.2-1.8 0-3.6-.2-5.3-.7l-5.8 5.8c3.4 1.6 7.5 2.4 11.5 2.4C89.6 60 96 54 96 43.9V15.2H88Zm-7.6 23.3c-4.8 0-7.8-3.6-7.8-8.2 0-4.5 3-8.2 7.8-8.2 4.7 0 7.9 3.6 7.9 8.2 0 4.7-3.2 8.2-7.9 8.2Z"/><path fill="url(#g)" d="M87.9 15.2v3.5a11.8 11.8 0 0 0-9.7-4.3c-7.6 0-14.4 6.3-14.4 16 0 9.5 6.8 15.9 14.4 15.9h2c3.8-.3 5.6-1.8 7.6-4.2v2.2c0 5.4-3.7 8.2-8.9 8.2-1.8 0-3.6-.2-5.3-.7l-5.8 5.8c3.4 1.6 7.5 2.4 11.5 2.4C89.6 60 96 54 96 43.9V15.2H88Zm-7.6 23.3c-4.8 0-7.8-3.6-7.8-8.2 0-4.5 3-8.2 7.8-8.2 4.7 0 7.9 3.6 7.9 8.2 0 4.7-3.2 8.2-7.9 8.2Z"/><path fill="url(#h)" d="M87.9 15.2v3.5a11.8 11.8 0 0 0-9.7-4.3c-7.6 0-14.4 6.3-14.4 16 0 9.5 6.8 15.9 14.4 15.9h2c3.8-.3 5.6-1.8 7.6-4.2v2.2c0 5.4-3.7 8.2-8.9 8.2-1.8 0-3.6-.2-5.3-.7l-5.8 5.8c3.4 1.6 7.5 2.4 11.5 2.4C89.6 60 96 54 96 43.9V15.2H88Zm-7.6 23.3c-4.8 0-7.8-3.6-7.8-8.2 0-4.5 3-8.2 7.8-8.2 4.7 0 7.9 3.6 7.9 8.2 0 4.7-3.2 8.2-7.9 8.2Z"/><path fill="url(#i)" d="M99.7 22.6v23.9h8.5V15.2l-8.5 7.4Zm8.5-9.5h-8.5V4.7h8.5v8.4Z"/><path fill="url(#j)" d="M127.7 14.4c-9.7 0-16.9 7-16.9 16.4 0 9.4 7.2 16.5 17 16.5 9.7 0 16.9-7 16.9-16.5 0-9.4-7.2-16.4-17-16.4Zm0 25c-4.7 0-8.3-3.5-8.3-8.6 0-5 3.6-8.6 8.3-8.6 4.8 0 8.3 3.6 8.3 8.6s-3.5 8.6-8.3 8.6Z"/><defs><linearGradient id="a" x1="10" x2="30.2" y1="36.3" y2="46" gradientUnits="userSpaceOnUse"><stop stop-color="#82278D"/><stop offset="1" stop-color="#574BA7"/></linearGradient><linearGradient id="b" x1="1.1" x2="34.9" y1="28.1" y2="1.4" gradientUnits="userSpaceOnUse"><stop stop-color="#82278D" stop-opacity="0"/><stop offset="1" stop-color="#624293"/></linearGradient><linearGradient id="c" x1="27.1" x2="62.9" y1="31.1" y2="47.4" gradientUnits="userSpaceOnUse"><stop stop-color="#663F9B"/><stop offset="1" stop-color="#1D82BB"/></linearGradient><linearGradient id="d" x1="59.6" x2="49.2" y1="-.4" y2="26.1" gradientUnits="userSpaceOnUse"><stop stop-color="#3C6497"/><stop offset="1" stop-color="#455CA1" stop-opacity="0"/></linearGradient><linearGradient id="f" x1="61.6" x2="98.2" y1="34.5" y2="48.7" gradientUnits="userSpaceOnUse"><stop stop-color="#2A76A8"/><stop offset="1" stop-color="#05A6A2"/></linearGradient><linearGradient id="i" x1="105.5" x2="110.4" y1="-2.8" y2="46.2" gradientUnits="userSpaceOnUse"><stop stop-color="#119189"/><stop offset="1" stop-color="#03AA9C"/></linearGradient><linearGradient id="j" x1="118.9" x2="142.6" y1="15.9" y2="41.4" gradientUnits="userSpaceOnUse"><stop stop-color="#06A082"/><stop offset="1" stop-color="#00B17C"/></linearGradient><radialGradient id="e" cx="0" cy="0" r="1" gradientTransform="matrix(-9.2492 1.3213 -3.18572 -22.3003 64 12.9)" gradientUnits="userSpaceOnUse"><stop stop-color="#366A9C"/><stop offset="1" stop-color="#366A9D" stop-opacity="0"/></radialGradient><radialGradient id="g" cx="0" cy="0" r="1" gradientTransform="matrix(36.04803 -16.14213 11.439 25.54517 62.1 64.8)" gradientUnits="userSpaceOnUse"><stop stop-color="#0799D5"/><stop offset="1" stop-color="#03A9A4" stop-opacity="0"/></radialGradient><radialGradient id="h" cx="0" cy="0" r="1" gradientTransform="matrix(-30.32271 15.17985 -10.75707 -21.48793 103.6 15.7)" gradientUnits="userSpaceOnUse"><stop stop-color="#0A8A7C"/><stop offset="1" stop-color="#029792" stop-opacity="0"/></radialGradient></defs></svg>
