
<svg xmlns="http://www.w3.org/2000/svg" xmlns:xlink="http://www.w3.org/1999/xlink" viewBox="0 0 120 60"><path fill="#169bd6" d="M48.9 34.9v-4H44v4h-1.8V25H44v4.1H49v-4.1h1.8v9.8z"/><path fill="#256ea5" d="M60 33h-5l-.9 1.8h-2l4.4-9.7h2l4.4 9.7h-2zm-2.5-5.9-1.8 4.2h3.6z"/><path fill="#24405d" d="M69 32H66v2.8h-1.8v-9.7H69c4.8 0 4.8 6.9 0 6.9zM66 30.3H69c2.4 0 2.4-3.5 0-3.5h-2.8zm16.5 4.5h-2.2l-2.8-3.2h-1.8v3.2H74v-9.7h4.6c2.3 0 3.5 1.5 3.5 3.2s-.6 2.7-2.4 3l3 3.4zm-6.8-8V30h2.8c1.2 0 1.7-.7 1.7-1.5s-.5-1.6-1.7-1.6zM93.2 30c0 2.6-1.6 5-5 5s-5-2.4-5-5 1.6-5 5-5 5 2.5 5 5zM85 30c0 1.7.9 3.4 3.2 3.4s3.1-1.7 3.2-3.4-1-3.4-3.2-3.4-3.3 1.8-3.2 3.5zm15-4.9h2L98.9 30l3.4 4.9h-2l-2.6-3.6-2.5 3.6h-2l3.4-4.9-3.3-4.7V25h2l2.4 3.6zm7.7 4 2.6-4h2.2l-3.9 5.7v4h-1.8v-4l-3.8-5.6V25h2.2z"/><g fill="none" stroke-miterlimit="10"><g stroke="#284a6a"><path stroke-width=".12" d="m22.4 26.1-3.2-3.5"/><path stroke-width=".06" d="M12.6 23.4 15 27"/><g stroke-width=".6"><path stroke-width=".12" d="m22.4 26.1 3-3.5m.7 7.4 3.6-3m-3.6 3 3.6 3.2m-4.2 4.1-3.1-3.4m-3.2 3.4 3.2-3.4M15 33l3.5-3M15 27l3.5 3m3.9-3.9L15 27m7.4-.9 7.3.9M26 30l-.6-7.4m.7 7.4-.6 7.3M29.7 33.2l-7.3.7M15 33l7.4.8M19.2 37.3l-.7-7.3m.7-7.4-.7 7.4"/></g><g stroke-width=".3"><path stroke-width=".06" d="m11.6 28 3.4-1m.7-7 3.5 2.6m.9-4.1-.9 4.1m.9-4.1 5.3 4M24.6 18.5l.8 4m3.6-2.4-3.6 2.5m6.8.8-6.8-.8m4.3 4.4 2.5-3.6M29.7 27l3.5 1M29.7 27l3.4 5.1m-8.5-13.6-5.4 4.1M29.7 27l-.7-7m.7 13.2 3.4-1.1M29.7 33.2l3.5-5.3m-3.5 5.3 2.5 3.3m-2.5-3.3L29 40m-3.5-2.6 3.5 2.6M25.5 37.3l6.7-.8m-6.7.8-.8 4.2m.8-4.2L20 41.5m-.9-4.2.9 4.2M19.2 37.3l5.5 4.2m-5.5-4.2-3.5 2.6m3.5-2.6-6.6-.7M15 33l-2.4 3.5M15 33.1l.7 6.8M15 33l-3.4-1M15 27l-3.4 5M15 33.1 11.6 28m4.1-7.8L15 27M12.6 23.4l6.6-.8"/></g></g><g stroke="#24405d" stroke-width=".2"><path stroke-width=".04000000000000001" d="m15.7 20-2.6-1.2m2.6 1.3-.2-2.9m4.6 1.3-4.6-1.3M20 18.5 18.2 16m2 2.4.8-2.9m-5.2 4.5 2.4-4m6.5 2.4L21 15.6M24.6 18.5l-.8-3m-3.7 3 3.7-3m.8 3 2-2.4m2.4 4-2.4-4M29 20l.2-2.8m-4.6 1.3 4.6-1.3m-.2 2.9 2.6-1.4M29 20.1l4.6.7M32.2 23.4l1.4-2.6m-1.4 2.6-.6-4.7m.6 4.7 3-.2m-3 .2 4.1 2.4M33.2 28l2-4.8m-2 4.7 3.1-2.1m-3.1 2.1 3.5.7M33 32.1l3.6-3.5M33.1 32.1l3.7-.7M33.2 28l3.6 3.5m-3.7.7 3.1 2m-4 2.4 4-2.3M32.2 36.5l3 .3M33 32.1l2 4.7m-3-.3 1.5 2.7m-1.4-2.7-.6 4.7M31.6 41.2 29 39.9m0 0 .2 3m-.2-3 4.6-.7m-4.6.7-2.4 4M24.7 41.5l1.9 2.4m-2-2.4 4.6 1.3m-4.5-1.3-1 3m1-3-3.8 3M20 41.5l.9 3m-.8-3 3.7 3m-3.7-3-2 2.4m-2.4-4 2.4 4M20 41.5l-4.5 1.4m.2-3-.2 3m.2-3-2.6 1.4m-.5-4.7.5 4.7M15.7 39.9l-4.6-.7m1.5-2.6L11 39.2m1.5-2.6-3 .3m3-.3-4.2-2.4m3.2-2.1-3.2 2.1m3.2-2.1-3.7-.7M11.6 32l-2 4.9m2-9L8 31.4M11.6 32l-3.7-3.4m3.7-.7-3.1-2M11.6 28l-3.7.6m3.7-.7-2-4.7M12.6 23.4l-3-.2m3 .2-4.1 2.4m4-2.4L11.2 21m1.5 2.5.5-4.6M15.7 20l-4.6 1"/></g></g><path fill="#256ea5" d="M16.7 31.8v-3.6h3.6v3.6zm3.8-4v-3.5h3.6V28zm0 7.9V32h3.6v3.6zm4-4v-3.5H28v3.6z"/><path fill="#3378bc" d="M24.2 23.8v-2.5h2.5v2.5zm-6.2 0v-2.5h2.5v2.5zm-4.3 4.4v-2.5h2.5v2.5zm0 6.2v-2.5h2.5v2.5zm14.8 0v-2.5H31v2.5zm0-6.2v-2.4h2.6v2.4z"/><path fill="#169bd6" d="M11.7 24.2v-1.6h1.7v1.6zM15 21v-1.6h1.6v1.6zm4.3-1.6v-1.6H21v1.6zm-8.4 9.4v-1.6h1.6v1.6zm20.5-6 1.7-.1v1.6h-1.7zm-3.1-3.4h1.6v1.6h-1.6zm-4.4-1.6h1.6v1.6h-1.6zm8.5 9.4h1.6v1.6h-1.6z"/><path fill="#3378bc" d="M18 38.6v-2.5h2.5v2.5zm6.2 0v-2.5h2.5v2.5z"/><path fill="#169bd6" d="M31.3 37.4v-1.7H33v1.7zm-3.1 3.3V39h1.6v1.6zm-4.4 1.6v-1.6h1.7v1.6zm8.5-9.4v-1.7h1.6V33zm-20.6 2.8h1.6v1.6h-1.6zm3.2 3.4h1.6v1.6H15zm4.3 1.5H21v1.7h-1.7zm-8.4-9.4h1.6V33h-1.6z"/><g fill="#00a8da" transform="matrix(.2 0 0 .2 16.2 8.1)"><use xlink:href="#a" x="101" y="19.9"/><use xlink:href="#a" x="106.3" y="32.1"/><use xlink:href="#a" x="93.9" y="9.2"/><use xlink:href="#a"/><use xlink:href="#a" x="-23.5" y="44.8"/><use xlink:href="#a" x="84.8"/><use xlink:href="#a" x="-21.2" y="32.1"/><use xlink:href="#a" x="23" y="-12.5"/><use xlink:href="#a" x="-16.2" y="19.9"/><use xlink:href="#a" x="-8.9" y="9"/><path d="M-5.3 39.5h4v4.1h-4zm24.9-7.9h4v4.1h-4z"/><use xlink:href="#a" x="73.9" y="-7.2"/><use xlink:href="#a" x="108.3" y="44.7"/><use xlink:href="#a" x="48.9" y="-15.3"/><use xlink:href="#a" x="61.6" y="-12.6"/><use xlink:href="#a" x="84.8" y="102.4"/><use xlink:href="#a" x="108.3" y="57.6"/><use xlink:href="#a" y="102.4"/><use xlink:href="#a" x="106.3" y="70.5"/><use xlink:href="#a" x="61.6" y="115"/><use xlink:href="#a" x="101" y="82.7"/><use xlink:href="#a" x="93.9" y="93.6"/><path d="M57.5 156.7h4v4.1h-4zM33 164.3h4v4.1h-4z"/><use xlink:href="#a" x="11" y="110.1"/><use xlink:href="#a" x="-16.3" y="82.5"/><use xlink:href="#a" x="-21.2" y="70.5"/><use xlink:href="#a" x="-9" y="93.6"/><use xlink:href="#a" x="-23.5" y="57.6"/><use xlink:href="#a" x="36" y="117.5"/><use xlink:href="#a" x="22.9" y="114.9"/></g><defs><path id="a" d="M-16.2 50.8v-4h4v4z"/></defs></svg>
