
<svg xmlns="http://www.w3.org/2000/svg" viewBox="0 0 218 64"><g fill="none"><path fill="#04151F" d="M70 32.3c0-9.2 7-15.4 16.4-15.4 7.8 0 11.7 4.5 13.5 8.6l-7.7 3.6c-.8-2.3-3.1-4.3-5.8-4.3-4.3 0-7.2 3.3-7.2 7.5 0 4.1 2.9 7.4 7.2 7.4 2.7 0 5-2 5.8-4.3l7.7 3.5a14 14 0 0 1-13.5 8.7c-9.3 0-16.4-6.2-16.4-15.3zm53.2 0c0-4.1-2.3-7.1-7.1-7.1h-4.4v14h4.3c4.5 0 7.2-3.2 7.2-7zM102.7 47V17.3H116c9.4 0 16.3 5.4 16.3 15 0 9.4-7 14.8-16.2 14.8h-13.4zm52.8 0-11-15v15h-9V17.4h9.3l10.4 14v-14h9V47h-8.7zm16.5 0 9.4-21.9h-14v-7.8h24.3v6.2l-9.9 23.5H172zm25.7 0 9.4-21.9h-14v-7.8h24.4v6.2l-10 23.5h-9.8zM27.1 0C12.1 0 0 12.2 0 27.3c0 15 27.1 36.4 27.1 36.4s27.2-21.3 27.2-36.4C54.3 12.3 42 0 27 0"/><path fill="#FFE115" d="M27.1 9.8a16.6 16.6 0 0 0 0 33.3c9.2 0 16.6-7.5 16.6-16.7S36.3 9.8 27 9.8"/><path fill="#04151F" d="M27.1 18.9a7.5 7.5 0 0 0-7.4 7.5c0 4.1 3.3 7.5 7.4 7.5a7.5 7.5 0 0 0 0-15"/></g></svg>
