
<svg xmlns="http://www.w3.org/2000/svg" viewBox="0 0 140 34"><style>.st0{fill:#1e3b45}.st1{fill:#bd483b}.st3{fill:#fec82f}.st4{fill:#df9c26}</style><path d="M43.6 19.6c0 4-1.4 6-4.2 6-.4 0-.8 0-1.2-.2v-1.1c.4.2.9.2 1.3.2 1 0 1.8-.4 2.3-1.2.4-.8.7-2 .7-3.7v-11h1.1v11zM47 24.7v-1.3c1.3.8 2.5 1.1 3.7 1.1 1.3 0 2.3-.2 3-.8.6-.5 1-1.3 1-2.2a3 3 0 0 0-.7-2c-.5-.6-1.5-1.3-3-2.1-1.7-1-2.7-1.8-3.2-2.5a4 4 0 0 1-.6-2.3c0-1.1.4-2.1 1.3-3 1-.8 2.1-1.2 3.7-1.2 1 0 2 .2 3 .5v1.2c-1-.4-2-.6-3.2-.6a4 4 0 0 0-2.7.8c-.6.6-1 1.3-1 2.2 0 .8.3 1.5.7 2 .5.5 1.5 1.2 3 2 1.5 1 2.5 1.7 3 2.4.6.7.8 1.5.8 2.4a4 4 0 0 1-1.3 3c-.9.9-2.1 1.3-3.8 1.3a8.7 8.7 0 0 1-3.6-.9zM59.1 25.3V8.7H65c5.9 0 8.8 2.7 8.8 8 0 2.7-.8 4.7-2.4 6.3a8.9 8.9 0 0 1-6.4 2.3H59zm3.7-13.6v10.6h1.9a5 5 0 0 0 3.8-1.5c1-1 1.4-2.3 1.4-4a5 5 0 0 0-1.4-3.7c-.9-1-2.2-1.4-3.8-1.4h-1.9zM86.8 25.3h-10V8.7h9.7v3h-5.9v3.7h5.5v3h-5.5v3.9h6.2v3zM99.9 25.3H90V8.7h3.7v13.6h6.2v3zM106 8.7v16.6h-3.8V8.7h3.8zM123.8 8.7l-5.7 16.6H114l-5.7-16.6h4l3.5 11.5.4 1.7c0-.5.2-1 .4-1.7l3.4-11.5h4zM140 25.3h-4.3l-2.6-4.3a16.2 16.2 0 0 0-1-1.5l-.6-.4-.7-.2h-1v6.4h-3.7V8.7h5.9c4 0 6 1.5 6 4.5a4.7 4.7 0 0 1-1 3l-1.2 1a6 6 0 0 1-1.5.6l.7.4.7.7a7.9 7.9 0 0 1 1.2 1.5l3.1 4.9zm-10.2-13.8V16h1.6c.8 0 1.5-.2 2-.7.5-.5.7-1 .7-1.7 0-1.5-.9-2.2-2.6-2.2h-1.7z" class="st0"/><g><path d="m15.4.3-3.1 11.1v11.1l3.1 11.2 3.2-11.2V11.4L15.4.3z" class="st1"/><path fill="#e64e3d" d="M15.4.3 0 5.9l2.2 20.5 13.2 7.3"/><path d="m15.4 33.7 13.3-7.4 2.4-20.5L15.4.3" class="st1"/><g><path d="M12.6 25a9.4 9.4 0 0 1-4-2.3c0-.2-.2-.3-.3-.5-.9-1-1.5-2-1.9-3.4l.8.7a8.6 8.6 0 0 0 2.2 1.1h.2c0 .8.6 1.4 1.4 1.6.3 1.1.8 2.1 1.6 2.9zM13.2 11.8c0 .3 0 .6.2.9a14.5 14.5 0 0 0-2.6 6.1c-.4.1-.8.4-1 .8a6.2 6.2 0 0 1-1-.5 7 7 0 0 1-2.2-1.6l-.1-.2h-.1l-.1-.2-.2-.3V16a9.3 9.3 0 0 1 6.5-8.9 11.4 11.4 0 0 0 1 3.5c-.3.3-.4.7-.4 1zM12.2 20.5a.9.9 0 0 1-.3.7.9.9 0 0 1-1.1 0 1 1 0 0 1-.4-.7.9.9 0 0 1 .9-1c.2 0 .4.1.5.3l.2.2.2.5zM15.8 11.8l-.1.4a.9.9 0 0 1-1 .5.9.9 0 0 1 .2-1.8 1 1 0 0 1 .9.9z" class="st3"/><path d="M24.8 16.1c0 1-.2 1.8-.4 2.7l-2.4-1a1.7 1.7 0 0 0-.1-1c1-1 1.9-2 2.5-3.2.2.8.4 1.6.4 2.5zM23.9 12.2l-.2.4a13.8 13.8 0 0 1-2.5 3.4 1.7 1.7 0 0 0-1.9.1 16.8 16.8 0 0 1-3.1-3.2 1.7 1.7 0 0 0 .1-2 16 16 0 0 1 4-2.8c1.5 1 2.8 2.4 3.6 4.1zM21.2 17.5a.9.9 0 0 1-1.8 0 1 1 0 0 1 1.2-.9 1 1 0 0 1 .6.9zM21.5 18.8a1.7 1.7 0 0 1-2.1.1h-.2c-1.2.9-2.5 1.4-3.8 1.8v4.8c3.9 0 7.2-2.4 8.6-5.7a14 14 0 0 1-2.5-1z" class="st4"/><path d="M15.4 20.7 13 21h-.1c-.2.4-.5.7-.9.9.3 1 .7 1.7 1.4 2.3a5 5 0 0 0 1.8 1.2h.2v-4.8z" class="st3"/><path d="M18.6 17.5V17a17.5 17.5 0 0 1-3.2-3.4v6a12.9 12.9 0 0 0 3.3-1.5v-.6z" class="st4"/><path d="m15.4 13.6-.1-.1a1.6 1.6 0 0 1-1-.1 13.4 13.4 0 0 0-2.4 5.5c.5.2.9.6 1 1 .9 0 1.7 0 2.5-.3v-6z" class="st3"/><path d="M15.4 6.8v3.4h.1c1.1-1 2.3-2 3.6-2.7a9.3 9.3 0 0 0-3.7-.7z" class="st4"/><path d="m15.4 6.8-1.8.1.1.7.8 2.5a1.8 1.8 0 0 1 .9 0V6.9z" class="st3"/></g></g></svg>
