<svg xmlns="http://www.w3.org/2000/svg" fill="none" class="logo-variant-dark" viewBox="0 0 119 34"><path fill="#FF5700" fill-rule="evenodd" d="M34.9 16.9c0 9.32-7.5 16.88-16.76 16.88a16.6 16.6 0 0 1-9.98-3.32 15.42 15.42 0 0 0 7.55 2c3.89 0 7.63-1.49 10.48-4.15a15.6 15.6 0 0 0 4.89-12.84l-.01-.14-.01-.17-.01.01c-.07-.64-.15-1.14-.15-1.14H18.74l-.94 1.78-2.17 4.13h9.18a9.69 9.69 0 0 1-9.1 6.63 9.6 9.6 0 0 1-9.6-9.67 9.74 9.74 0 0 1 5.92-8.94 9.54 9.54 0 0 1 9.34 1.12l1.26-2.38 1.5-2.85a15.3 15.3 0 0 0-15.92-.56A16.6 16.6 0 0 1 18.14.01C27.4.01 34.9 7.57 34.9 16.89Z" clip-rule="evenodd"/><path fill="#27333F" d="M57.9 20.62a5.85 5.85 0 0 1-4.62 2.2 6.09 6.09 0 0 1-3.05-.76l-.1-.06a5.33 5.33 0 0 1-1.99-2.04c-.5-.94-.76-2-.74-3.07a6.21 6.21 0 0 1 .74-3.06 5.33 5.33 0 0 1 2-2.04l.09-.06a6.1 6.1 0 0 1 3.04-.76c.84 0 1.66.16 2.42.5l1.73-3.28-.04-.02a10.65 10.65 0 0 0-4.32-.85c-1.63-.01-3.25.35-4.72 1.06-.13.06-.26.1-.38.17a9.13 9.13 0 0 0-3.57 3.41 9.44 9.44 0 0 0-1.3 4.93 9.45 9.45 0 0 0 1.3 4.93 9.13 9.13 0 0 0 3.57 3.41c.12.07.25.11.38.18 1.46.7 3.07 1.07 4.7 1.05 1.48.02 2.96-.27 4.33-.84l.05-.03a8.52 8.52 0 0 0 3.2-2.43l-2.73-2.54ZM66.83 25.22a9.17 9.17 0 0 1-4.9-8.33 9.18 9.18 0 0 1 4.9-8.33 10.66 10.66 0 0 1 5.15-1.24c1.8-.02 3.56.4 5.14 1.25a9.31 9.31 0 0 1 4.91 8.32 9.33 9.33 0 0 1-4.9 8.33 10.58 10.58 0 0 1-5.15 1.24c-1.8.03-3.57-.4-5.15-1.24Zm8.1-3.16a5.39 5.39 0 0 0 2.05-2.1c.5-.94.77-2 .75-3.07a6.22 6.22 0 0 0-.75-3.06 5.39 5.39 0 0 0-2.06-2.1 5.8 5.8 0 0 0-2.94-.76 5.8 5.8 0 0 0-2.94.76 5.39 5.39 0 0 0-2.06 2.1c-.5.94-.76 2-.74 3.06a6.2 6.2 0 0 0 .74 3.07c.48.88 1.2 1.6 2.06 2.1.9.5 1.91.77 2.94.75a5.79 5.79 0 0 0 2.94-.75ZM96.94 26.14 93.39 21h-3.9v5.15h-4.26V7.64h7.95c1.46-.03 2.9.25 4.24.82a6.31 6.31 0 0 1 2.77 2.33c.66 1.06 1 2.3.97 3.57a6.32 6.32 0 0 1-.98 3.55 6.25 6.25 0 0 1-2.8 2.29l4.12 5.94h-4.56Zm-1.08-14.18a4.44 4.44 0 0 0-2.91-.83h-3.47v6.45h3.47a4.4 4.4 0 0 0 2.9-.85 2.94 2.94 0 0 0 1-2.37 2.95 2.95 0 0 0-1-2.4ZM118.74 22.7v3.44h-14.22V7.64h13.88v3.44h-9.66v4.02h8.53v3.33h-8.53v4.28h10Z"/></svg>
